# AST/ASF file generated using VICON BodyLanguage
# -----------------------------------------------
:version 1.10
:name VICON
:units
  mass 1.0
  length 0.45
  angle deg
:documentation
   .ast/.asf automatically generated from VICON data using
   VICON BodyBuilder and BodyLanguage model FoxedUp or BRILLIANT.MOD
:root
   order TX TY TZ RX RY RZ
   axis XYZ
   position 0 0 0  
   orientation 0 0 0 
:bonedata
  begin
     id 1 
     name lhipjoint
     direction 0.612567 -0.751349 0.245431 
     length 2.42285 
     axis 0 0 0  XYZ
  end
  begin
     id 2 
     name lfemur
     direction 0.34202 -0.939693 0  
     length 7.11304  
     axis 0 0 20  XYZ
    dof rx ry rz
    limits (-160.0 20.0)
           (-70.0 70.0)
           (-60.0 70.0)
  end
  begin
     id 3 
     name ltibia
     direction 0.34202 -0.939693 0   
     length 7.84529   
     axis 0 0 20   XYZ
    dof rx
    limits (-10.0 170.0)
  end
  begin
     id 4 
     name lfoot
     direction 0.0779239 -0.214094 0.9737   
     length 1.97176   
     axis -90 7.62852e-016 20   XYZ
    dof rx rz
    limits (-45.0 90.0)
           (-70.0 20.0)
  end
  begin
     id 5 
     name ltoes
     direction 1.53565e-011 -4.21709e-011 1   
     length 0.993197   
     axis -90 7.62852e-016 20   XYZ
    dof rx
    limits (-90.0 20.0)
  end
  begin
     id 6 
     name rhipjoint
     direction -0.665722 -0.709315 0.231701   
     length 2.56642  
     axis 0 0 0  XYZ 
  end
  begin
     id 7 
     name rfemur
     direction -0.34202 -0.939693 0   
     length 7.32108   
     axis 0 0 -20   XYZ
    dof rx ry rz
    limits (-160.0 20.0)
           (-70.0 70.0)
           (-70.0 60.0)
  end
  begin
     id 8 
     name rtibia
     direction -0.34202 -0.939693 0   
     length 7.81254   
     axis 0 0 -20   XYZ
    dof rx
    limits (-10.0 170.0)
 end
 begin
     id 9 
     name rfoot
     direction -0.0832806 -0.228812 0.969902   
     length 2.08278  
     axis -90 -7.62852e-016 -20   XYZ
    dof rx rz
    limits (-45.0 90.0)
           (-20.0 70.0)
  end
  begin
     id 10 
     name rtoes
     direction -1.53589e-011 -4.22086e-011 1   
     length 1.04609   
     axis -90 -7.62852e-016 -20   XYZ
    dof rx
    limits (-90.0 20.0)
  end
  begin
     id 11 
     name lowerback
     direction -0.00506013 0.988403 -0.151766   
     length 2.01978   
     axis 0 0 0   XYZ
    dof rx ry rz
    limits (-20.0 45.0)
           (-30.0 30.0)
           (-30.0 30.0)
  end
  begin
     id 12 
     name upperback
     direction -0.00836389 0.99968 0.0238859   
     length 2.01276   
     axis 0 0 0   XYZ
    dof rx ry rz
    limits (-20.0 45.0)
           (-30.0 30.0)
           (-30.0 30.0)
  end
  begin
     id 13 
     name thorax
     direction -0.00684136 0.995386 0.0957043   
     length 2.07303   
     axis 0 0 0   XYZ
    dof rx ry rz
    limits (-20.0 45.0)
           (-30.0 30.0)
           (-30.0 30.0)
  end
  begin
     id 14 
     name lowerneck
     direction -0.0161045 0.999661 0.0204485   
     length 1.91243   
     axis 0 0 0   XYZ
    dof rx ry rz
    limits (-20.0 45.0)
           (-30.0 30.0)
           (-30.0 30.0)
  end
  begin
     id 15 
     name upperneck
     direction 0.0553583 0.990946 -0.122319   
     length 1.91574   
     axis 0 0 0   XYZ
    dof rx ry rz
    limits (-20.0 45.0)
           (-30.0 30.0)
           (-30.0 30.0)
  end
  begin
     id 16
     name head
     direction 0.0180273 0.998839 -0.0446756  
     length 1.92693  
     axis 0 0 0   XYZ
    dof rx ry rz
    limits (-20.0 45.0)
           (-30.0 30.0)
           (-30.0 30.0)
  end
  begin
     id 17 
     name lclavicle
     direction 0.945646 0.319323 -0.0615358  
     length 4.0076  
     axis 0 0 0   XYZ
    dof ry rz
    limits (-20.0 10.0)
           (0.0 20.0)
  end
  begin
     id 18 
     name lhumerus
     direction 1 -4.48967e-011 -2.79996e-027   
     length 5.64147   
     axis 180 -30 -90   XYZ
    dof rx ry rz
    limits (-60.0 90.0)
           (-90.0 90.0)
           (-90.0 90.0)
  end
  begin
     id 19
     name lradius
     direction 1 -4.48976e-011 -9.5122e-027   
     length 2.86444   
     axis 180 -30 -90   XYZ
    dof rx
    limits (-10.0 170.0)
  end
  begin
     id 20
     name lwrist
     direction 1 -4.48983e-011 -1.24047e-026   
     length 1.43222   
     axis 9.05591e-015 90 90   XYZ
    dof ry
    limits (-180.0 0.0)
 end
  begin
     id 21 
     name lhand
     direction 1 -4.4892e-011 -2.48094e-026   
     length 0.722123   
     axis 1.58305e-014 90 90   XYZ
    dof rx rz
    limits (-90.0 90.0)
           (-45.0 45.0)
  end
  begin
     id 22 
     name lfingers
     direction 1 -4.48895e-011 -4.96187e-026   
     length 0.582194   
     axis 3.1661e-014 90 90   XYZ
    dof rx
    limits (0.0 90.0)
  end
  begin
     id 23
     name lthumb
     direction 0.707107 -6.34961e-011 0.707107   
     length 0.835918   
     axis -90 45 2.85299e-015   XYZ
    dof rx rz
    limits (-45.0 45.0)
           (-45.0 45.0)
  end
  begin
     id 24 
     name rclavicle
     direction -0.932635 0.324218 -0.15835   
     length 3.65819  
     axis 0 0 0   XYZ 
    dof ry rz
    limits (-10.0 20.0)
           (-20.0 0.0)
  end
  begin
     id 25 
     name rhumerus
     direction -1 -4.48965e-011 -4.02296e-027  
     length 5.44729   
     axis 180 30 90   XYZ
    dof rx ry rz
    limits (-90.0 60.0)
           (-90.0 90.0)
           (-90.0 90.0)
  end
  begin
     id 26 
     name rradius
     direction -1 -4.48957e-011 -8.81087e-027   
     length 3.08821   
     axis 180 30 90   XYZ
    dof rx
    limits (-10.0 170.0)
  end
  begin
     id 27 
     name rwrist
     direction -1 -4.49015e-011 -1.24047e-026   
     length 1.5441   
     axis 9.05591e-015 -90 -90   XYZ
    dof ry
    limits (-180.0 0.0)
  end
  begin
     id 28
     name rhand
     direction -1 -4.4891e-011 -2.48094e-026   
     length 0.821049   
     axis 1.58305e-014 -90 -90   XYZ
    dof rx rz
    limits (-90.0 90.0)
           (-45.0 45.0)
  end
  begin
     id 29
     name rfingers
     direction -1 -4.48985e-011 -4.96187e-026   
     length 0.661951   
     axis 3.1661e-014 -90 -90   XYZ
    dof rx
    limits (0.0 90.0)
  end
  begin
     id 30
     name rthumb
     direction -0.707107 -6.34906e-011 0.707107   
     length 0.950433   
     axis -90 -45 -2.85299e-015   XYZ
    dof rx rz
    limits (-45.0 45.0)
           (-45.0 45.0)
  end
:hierarchy
  begin
    root lhipjoint rhipjoint lowerback
    lhipjoint lfemur
    lfemur ltibia
    ltibia lfoot
    lfoot ltoes
    rhipjoint rfemur
    rfemur rtibia
    rtibia rfoot
    rfoot rtoes
    lowerback upperback
    upperback thorax
    thorax lowerneck lclavicle rclavicle
    lowerneck upperneck
    upperneck head
    lclavicle lhumerus
    lhumerus lradius
    lradius lwrist
    lwrist lhand lthumb
    lhand lfingers
    rclavicle rhumerus
    rhumerus rradius
    rradius rwrist
    rwrist rhand rthumb
    rhand rfingers
  end

#!OML:ASF F:\VICON\USERDATA\INSTALL\rory3\rory3.ASF
:FULLY-SPECIFIED
:DEGREES
1332
root 3.02502 18.0464 -0.441551 -1.75867 79.0448 -7.18568
lowerback 4.14886 -2.39672 3.09197
upperback -3.93142 -2.83905 1.84161
thorax -6.48344 -1.47826 0.465252
lowerneck 13.5386 -14.2101 -6.77342
upperneck -24.0741 -19.3077 8.23745
head -8.15473 -9.34417 5.66115
rclavicle -2.56246e-014 -1.07344e-014
rhumerus -9.2565 40.4435 -98.4996
rradius 123.822
rwrist 12.7641
rhand 27.2525 -0.426044
rfingers 7.12502
rthumb 51.2207 -20.9834
lclavicle -2.56246e-014 -1.07344e-014
lhumerus -29.5431 -19.607 99.6261
lradius 134.03
lwrist 22.2225
lhand -19.4313 21.6579
lfingers 7.12502
lthumb 6.88884 51.5259
rfemur -9.65431 1.30575 18.2876
rtibia 15.796
rfoot -8.23564 3.32073
rtoes -13.422
lfemur 1.21667 10.0574 -19.8824
ltibia 3.83709
lfoot -12.6778 4.88193
ltoes -14.1252
1333
root 3.03294 18.0473 -0.432198 -2.07896 78.8728 -7.48387
lowerback 4.09305 -2.36198 3.12286
upperback -3.93584 -2.79027 1.87082
thorax -6.45525 -1.45449 0.471078
lowerneck 13.4819 -14.2274 -6.75268
upperneck -24.0635 -19.3427 8.14867
head -8.15136 -9.35191 5.62776
rclavicle 2.16737e-014 -1.19271e-015
rhumerus -9.11637 40.4351 -98.434
rradius 123.869
rwrist 12.1196
rhand 27.7973 -0.727564
rfingers 7.12502
rthumb 51.7162 -21.0003
lclavicle 2.16737e-014 -1.19271e-015
lhumerus -29.65 -19.57 99.6719
lradius 134.008
lwrist 22.2527
lhand -19.3434 21.6446
lfingers 7.12502
lthumb 6.97368 51.5097
rfemur -9.60702 1.37005 18.3893
rtibia 15.7778
rfoot -8.14473 3.42365
rtoes -13.5903
lfemur 1.26763 10.2206 -19.7797
ltibia 3.88614
lfoot -12.7166 4.92854
ltoes -14.3684
1334
root 3.04028 18.0469 -0.422432 -2.26909 78.7125 -7.68923
lowerback 3.99182 -2.3101 3.16585
upperback -3.94757 -2.72171 1.86616
thorax -6.41053 -1.42244 0.431225
lowerneck 13.4737 -14.2609 -6.70657
upperneck -24.0904 -19.3928 8.0852
head -8.16759 -9.37 5.60745
rclavicle 6.43565e-015 9.93923e-015
rhumerus -8.87406 40.1229 -98.3138
rradius 123.986
rwrist 10.7522
rhand 29.2943 -1.04713
rfingers 7.12502
rthumb 53.0713 -20.4942
lclavicle 6.43565e-015 9.93923e-015
lhumerus -29.6701 -19.56 99.6652
lradius 133.985
lwrist 22.3691
lhand -19.3649 21.7456
lfingers 7.12502
lthumb 6.95296 51.6114
rfemur -9.61734 1.44835 18.4721
rtibia 15.7731
rfoot -8.06006 3.5141
rtoes -13.2396
lfemur 1.30872 10.3725 -19.701
ltibia 3.87472
lfoot -12.7709 4.90807
ltoes -14.4266
1335
root 3.04806 18.0452 -0.413034 -2.01379 78.6684 -7.42962
lowerback 3.91851 -2.29144 3.12858
upperback -3.97113 -2.70484 1.81863
thorax -6.39321 -1.41385 0.398284
lowerneck 13.4596 -14.2843 -6.60954
upperneck -24.0754 -19.4204 8.00424
head -8.17792 -9.38142 5.57077
rclavicle 2.59352e-014 1.31198e-014
rhumerus -8.79834 39.8166 -98.2856
rradius 124.077
rwrist 9.83236
rhand 30.4534 -1.09641
rfingers 7.12502
rthumb 54.1141 -19.857
lclavicle 2.59352e-014 1.31198e-014
lhumerus -29.6786 -19.5749 99.6102
lradius 133.973
lwrist 22.4342
lhand -19.399 21.8082
lfingers 7.12502
lthumb 6.91997 51.6751
rfemur -9.62494 1.38866 18.436
rtibia 15.8
rfoot -7.94678 3.66918
rtoes -12.6511
lfemur 1.372 10.4115 -19.727
ltibia 3.84022
lfoot -12.7839 4.89111
ltoes -13.7496
1336
root 3.05639 18.0462 -0.404439 -1.92742 78.7105 -7.32035
lowerback 3.87157 -2.32047 3.09665
upperback -4.00068 -2.74821 1.79659
thorax -6.39776 -1.43456 0.39618
lowerneck 13.5533 -14.2924 -6.5837
upperneck -24.1305 -19.4299 8.0197
head -8.21307 -9.38707 5.58646
rclavicle -3.61726e-014 7.95139e-016
rhumerus -8.8663 39.7492 -98.3647
rradius 124.052
rwrist 9.84474
rhand 30.5271 -1.00826
rfingers 7.12502
rthumb 54.1802 -19.7237
lclavicle -3.61726e-014 7.95139e-016
lhumerus -29.671 -19.5391 99.5403
lradius 133.957
lwrist 22.4704
lhand -19.3984 21.8206
lfingers 7.12502
lthumb 6.92059 51.6875
rfemur -9.59221 1.16613 18.4233
rtibia 15.8476
rfoot -7.84296 3.86634
rtoes -12.8999
lfemur 1.51736 10.363 -19.715
ltibia 3.69234
lfoot -12.7177 4.89904
ltoes -13.484
1337
root 3.06344 18.0471 -0.39563 -2.31853 78.7032 -7.68951
lowerback 3.85975 -2.317 3.12067
upperback -4.02634 -2.73933 1.82135
thorax -6.4181 -1.43055 0.408056
lowerneck 13.6066 -14.315 -6.56568
upperneck -24.1745 -19.4601 8.02555
head -8.23613 -9.40132 5.59648
rclavicle -1.72197e-014 -3.22031e-014
rhumerus -8.95935 39.6547 -98.3525
rradius 123.947
rwrist 10.1611
rhand 30.1628 -0.632003
rfingers 7.12502
rthumb 53.8533 -19.5687
lclavicle -1.72197e-014 -3.22031e-014
lhumerus -29.6309 -19.5469 99.4868
lradius 133.909
lwrist 22.4735
lhand -19.3601 21.8353
lfingers 7.12502
lthumb 6.95758 51.701
rfemur -9.56965 1.13857 18.5132
rtibia 15.943
rfoot -7.81421 3.97428
rtoes -13.1258
lfemur 1.79805 10.3606 -19.5778
ltibia 3.32121
lfoot -12.5799 4.92917
ltoes -13.3671
